PathFileType	4	(X/Y/Z)	/Users/niels/Desktop/University/Third Semester/Perception and Action/Exam/Gymnastics Motion Tracking/Code for Gym Tracking/Scripts/Analyzed Data/Start Salto/st_salto_good_id1_1_Sports2D/st_salto_good_id1_1_Sports2D_px_person00.trc
DataRate	CameraRate	NumFrames	NumMarkers	Units	OrigDataRate	OrigDataStartFrame	OrigNumFrames
29.763779527559056	29.763779527559056	11	22	m	29.763779527559056	63	127
Frame#	Time	Hip			RHip			RKnee			RAnkle			RBigToe			RSmallToe			RHeel			LHip			LKnee			LAnkle			LBigToe			LSmallToe			LHeel			Neck			Head			Nose			RShoulder			RElbow			RWrist			LShoulder			LElbow			LWrist		
		X1	Y1	Z1	X2	Y2	Z2	X3	Y3	Z3	X4	Y4	Z4	X5	Y5	Z5	X6	Y6	Z6	X7	Y7	Z7	X8	Y8	Z8	X9	Y9	Z9	X10	Y10	Z10	X11	Y11	Z11	X12	Y12	Z12	X13	Y13	Z13	X14	Y14	Z14	X15	Y15	Z15	X16	Y16	Z16	X17	Y17	Z17	X18	Y18	Z18	X19	Y19	Z19	X20	Y20	Z20	X21	Y21	Z21	X22	Y22	Z22
63	2.1166666666666667	1.1091134424519724	-0.31340262329910284	0.0	1.1098525035473017	-0.3139223522854153	0.0	0.9907496908812631	-0.20976178978874005	0.0	0.9581609712155755	-0.07180605665507962	0.0	0.9001616596104689	-0.03832766278863462	0.0	0.8937817640820258	-0.03784610506670286	0.0	0.9783718782647064	-0.05867515586276711	0.0	1.1029874137354838	-0.31045796767677586	0.0	1.02126877063162	-0.20184840304778975	0.0	1.0778147396727933	-0.08548780159493695	0.0	1.049398858331071	-0.03839658519609421	0.0	1.0543728227958116	-0.04327652835521425	0.0	1.116856699940503	-0.07602426498450883	0.0	0.995495635857836	-0.44465690771627225	0.0	0.9083152620774205	-0.45425104740619376	0.0	0.9480716927513013	-0.41850150157350086	0.0	1.009666933877462	-0.4328550161926943	0.0	0.9976240636841864	-0.32620565565046344	0.0	0.9424649170047182	-0.25730171424567755	0.0	1.0115365924670097	-0.437203587758955	0.0	0.9841811165865717	-0.33287412344867084	0.0	0.9382328725651112	-0.2728255330245447	0.0
64	2.1502645502645503	1.119533392618625	-0.31756855231314407	0.0	1.1202072787324993	-0.31942195392761424	0.0	1.0091821929042484	-0.20543168665862743	0.0	0.9825210940791198	-0.06532857298366002	0.0	0.9282600758411719	-0.03327921314073613	0.0	0.9282061417779279	-0.031385996358392586	0.0	0.9939465706270817	-0.0554469672207912	0.0	1.1151991738330256	-0.31294834396174037	0.0	1.045848187507592	-0.19792501238423965	0.0	1.1257888073356725	-0.0872626641037706	0.0	1.1068744854548065	-0.03571164695967315	0.0	1.1102622564651332	-0.04326560853675299	0.0	1.1510879487483605	-0.08030691869414064	0.0	0.9989045861308391	-0.4409378341647203	0.0	0.9106122703144292	-0.44425106948863574	0.0	0.952697190052598	-0.41103302451848134	0.0	1.0132946190759724	-0.42873754080455734	0.0	1.0056930766271757	-0.32073188966473853	0.0	0.9524853567767129	-0.25040561792341764	0.0	1.015692503882385	-0.43476743816754176	0.0	0.9904970204695887	-0.33051059657758697	0.0	0.9493679032831692	-0.2700718722406137	0.0
65	2.183862433862434	1.1292995334155382	-0.3215848276331695	0.0	1.1304687728909528	-0.32479515936203973	0.0	1.028535338991891	-0.20237582643807822	0.0	1.0106187424855848	-0.06041200304531972	0.0	0.9600142819621609	-0.02877572470625095	0.0	0.9644836249004277	-0.02673944947280521	0.0	1.0156837766991484	-0.05461933983576938	0.0	1.1265978927125817	-0.31650507271460027	0.0	1.0701123995539155	-0.19587205715311337	0.0	1.168651531691753	-0.09205005129105606	0.0	1.158148964478171	-0.034434343982283004	0.0	1.1592946036585645	-0.04501282365030006	0.0	1.1850396537725474	-0.08775361551629816	0.0	1.0029272486733187	-0.4364409849297862	0.0	0.9131184547581894	-0.4337239200811466	0.0	0.9581268611173422	-0.40268621432438184	0.0	1.017504378381598	-0.42475366995259284	0.0	1.0139739328716	-0.3150522632583101	0.0	0.9626003378064502	-0.24340835409133943	0.0	1.0192370196249627	-0.43110405673426866	0.0	0.9972196945684497	-0.3280969148761038	0.0	0.9601588318722025	-0.2645426228170075	0.0
66	2.2174603174603176	1.138681034080784	-0.3257515285752086	0.0	1.1407825835750034	-0.32991683142377304	0.0	1.0484837946530634	-0.20068977953345352	0.0	1.041219211297345	-0.05703327283372812	0.0	0.9936480438942125	-0.024621588683002675	0.0	1.0013486057502723	-0.023544894638561378	0.0	1.0425579499260818	-0.05533470028089718	0.0	1.1371535344120405	-0.3213132226344438	0.0	1.0935178490631388	-0.19562812279447447	0.0	1.205943224144163	-0.09974986716539012	0.0	1.2026105104954905	-0.03638153362587548	0.0	1.201870605252866	-0.0498914018699662	0.0	1.2182281615835313	-0.09812455959375338	0.0	1.007569470195473	-0.4314062757154026	0.0	0.9161367874260632	-0.4226680857982234	0.0	0.9644960907598802	-0.39380417010957786	0.0	1.0223204868496256	-0.42095209970570063	0.0	1.0224500273453547	-0.3095082073501152	0.0	0.9733055981486246	-0.23643059557594567	0.0	1.022219897233957	-0.42671596738660583	0.0	1.0036754770775167	-0.3260541187673672	0.0	0.9704358264765489	-0.25631371999880703	0.0
67	2.251058201058201	1.1480719577686365	-0.33011245008567747	0.0	1.1511855189508147	-0.3346035878516886	0.0	1.0687155293266242	-0.20023616844628564	0.0	1.0729892314637586	-0.05479192952632762	0.0	1.0273474688726754	-0.021031182688066048	0.0	1.0374772923546962	-0.021747993504101146	0.0	1.0725841990952603	-0.05598181411321719	0.0	1.1471878419645094	-0.3270950745510879	0.0	1.115919336318775	-0.196959353818842	0.0	1.238747551154332	-0.1102447640769834	0.0	1.2416814961809817	-0.04344224303681269	0.0	1.2402413128480185	-0.05912241858424886	0.0	1.2504421045236618	-0.11115343644337501	0.0	1.0128899093095405	-0.42604470417882867	0.0	0.9201015416630176	-0.41099607347206313	0.0	0.971994992979216	-0.3847251559029594	0.0	1.027809374225669	-0.41714015322578374	0.0	1.031056633376337	-0.3042951194236558	0.0	0.9846338303241325	-0.22929512869645513	0.0	1.0249790689547098	-0.4224241062102012	0.0	1.009138009933056	-0.32475943994173456	0.0	0.9801368249004729	-0.24708031394930538	0.0
68	2.284656084656085	1.1578674305572734	-0.334619788260619	0.0	1.1617483823284869	-0.3387984390719803	0.0	1.0891817799305148	-0.2006778621546452	0.0	1.105374293476273	-0.053324822468522506	0.0	1.0605187882692513	-0.018076803482410714	0.0	1.0724738558519649	-0.02103073930590312	0.0	1.1044543049885873	-0.055405347209511846	0.0	1.1572538199057776	-0.3333024106067897	0.0	1.137759970144695	-0.1994869325605666	0.0	1.2689040588069136	-0.12345501867597493	0.0	1.2773897710145121	-0.05680141568807269	0.0	1.2767360685545934	-0.07328761047537358	0.0	1.2819989511918783	-0.12675553057532868	0.0	1.0188984749191867	-0.4203798398121054	0.0	0.9254090964544994	-0.3986016941650831	0.0	0.9807251608238806	-0.3755581818387936	0.0	1.0340125350350167	-0.4129383155685579	0.0	1.0398063394588335	-0.29935361658317283	0.0	0.9964625269194951	-0.2219089034508451	0.0	1.0279315281987034	-0.41864361542996403	0.0	1.0134764521645916	-0.3241987642520514	0.0	0.9893891000518057	-0.2387260454377388	0.0
69	2.3182539682539685	1.1682765072720815	-0.339203560972526	0.0	1.1725392113953688	-0.34263433099307106	0.0	1.1098398288190443	-0.20160527466441625	0.0	1.1382646493920856	-0.05280530472654339	0.0	1.093555810121323	-0.015619186906295261	0.0	1.106749038591716	-0.020703367079139896	0.0	1.137549521189208	-0.05395344797954479	0.0	1.1678734626774747	-0.3392657004724028	0.0	1.1598656296909249	-0.2028359188747756	0.0	1.2979915823349737	-0.13905415570233384	0.0	1.3110501704513555	-0.07596619151547199	0.0	1.3122955065629687	-0.09179789857684253	0.0	1.3131425953157496	-0.14461757157895005	0.0	1.025466848372418	-0.41424828379013956	0.0	0.9321943670838401	-0.3856599869909499	0.0	0.9904779488610782	-0.3662712050432293	0.0	1.040755170450128	-0.4080730605820684	0.0	1.0487241276242298	-0.29444977563775404	0.0	1.008696118682816	-0.21462546474527958	0.0	1.0313598614278752	-0.41499673893646283	0.0	1.0173473195413392	-0.3237311104891373	0.0	0.9984781450963746	-0.23224627011020404	0.0
70	2.351851851851852	1.1792824954255787	-0.3437578112784241	0.0	1.1835254047147323	-0.34631656490442464	0.0	1.130486791967603	-0.20270670510539074	0.0	1.1713985384178354	-0.05391888100328482	0.0	1.1270558204927912	-0.01364182267810685	0.0	1.1408863291696918	-0.020162342414428807	0.0	1.171441290364946	-0.053216021902691805	0.0	1.1793583638923635	-0.3443894841025224	0.0	1.1831460037924506	-0.2068152759565808	0.0	1.3267263425803857	-0.15642483727982262	0.0	1.3429536960122312	-0.09876408046451537	0.0	1.3464188478390517	-0.11294063309240138	0.0	1.34356535265211	-0.16406654119212633	0.0	1.0323713537992874	-0.4074279264654564	0.0	0.9402560359935614	-0.3727509435971448	0.0	1.000719926719241	-0.3568501329649519	0.0	1.047637389621224	-0.4024340167874092	0.0	1.0577316388777005	-0.289266979207616	0.0	1.0212381462282176	-0.2080531888841544	0.0	1.0353924842494218	-0.4106887145153055	0.0	1.0218116377147786	-0.3223514869758852	0.0	1.0077974732131076	-0.22762466471135775	0.0
71	2.3854497354497357	1.190846447705719	-0.34825489018533967	0.0	1.194731836230463	-0.34999209236404416	0.0	1.1512288835156022	-0.20389271224274005	0.0	1.2046050429436586	-0.05729092146247083	0.0	1.1617258869415448	-0.012467992934709314	0.0	1.175653549971352	-0.019403254369294007	0.0	1.2059685297586757	-0.054791373332225626	0.0	1.1918263198865386	-0.34849855232966837	0.0	1.2083381390051289	-0.21153759144658807	0.0	1.355341552962935	-0.17519396443764618	0.0	1.3733599017082805	-0.1227596199977977	0.0	1.3786418684988253	-0.13491341298273027	0.0	1.3729166370842105	-0.1847010971357159	0.0	1.039440951315094	-0.39978482176129837	0.0	0.9492871031144312	-0.3604987240929321	0.0	1.0109591779984903	-0.34724667003555554	0.0	1.0543362518534454	-0.3958474921379838	0.0	1.0667661886300166	-0.2834239865919168	0.0	1.034080333190976	-0.20253161936917322	0.0	1.040059136909956	-0.4052936205639682	0.0	1.0278283826292263	-0.3193152996423153	0.0	1.0178633371373373	-0.22396903482825326	0.0
72	2.4190476190476193	1.2028814236798497	-0.35279673739981854	0.0	1.2062381285467865	-0.3536714269180198	0.0	1.17251967841825	-0.2052365589029748	0.0	1.2377335441469763	-0.06290706661888315	0.0	1.1979092568378833	-0.012664396346400587	0.0	1.2115528010103558	-0.019083930283586865	0.0	1.2408888247364225	-0.059284338964443226	0.0	1.2050794322926464	-0.3519022264967493	0.0	1.2352133412444661	-0.21730240887013194	0.0	1.3835984121434022	-0.19537723708626384	0.0	1.4027545362676992	-0.14646721478283015	0.0	1.4090182102247573	-0.15671083929656035	0.0	1.400929604469186	-0.20651929429115107	0.0	1.046506103262851	-0.39152218180336545	0.0	0.9590225823914568	-0.3493036139001205	0.0	1.0209517183331314	-0.3374875197925546	0.0	1.0607422378929938	-0.38817527498793797	0.0	1.0758405113381087	-0.27669217110982103	0.0	1.0471710985642695	-0.19792644919338356	0.0	1.0452583528896475	-0.39926133782525625	0.0	1.0359058499210976	-0.3145074258288714	0.0	1.0290821099665162	-0.21990207386066837	0.0
73	2.4526455026455025	1.2150284114774943	-0.3574676673735588	0.0	1.217858495582314	-0.35723945729202483	0.0	1.1945026583352838	-0.20683470556648928	0.0	1.270114462392961	-0.07015051928170482	0.0	1.2349102535155316	-0.01480674090225143	0.0	1.248020051836797	-0.02016126833860483	0.0	1.275305899834067	-0.06627558363191415	0.0	1.2185554926239985	-0.3550676833436	0.0	1.2622345634464127	-0.2243752069588724	0.0	1.41046845581994	-0.21683670554274298	0.0	1.4311229635612166	-0.16938371333904137	0.0	1.43735974720004	-0.17806281840601704	0.0	1.4269928584979583	-0.22931437660088427	0.0	1.053300972134958	-0.38327583483682465	0.0	0.9691608490133508	-0.3394018655791209	0.0	1.0306322675664914	-0.3279753566866227	0.0	1.0667716586873779	-0.3797703198265839	0.0	1.0849302843677007	-0.2693144159478794	0.0	1.0601790749597235	-0.1938486696993556	0.0	1.0508857468127024	-0.3935570845608337	0.0	1.0459792252192681	-0.30820667247095274	0.0	1.0413852032688042	-0.21441355211936397	0.0
